<?xml version="1.0" standalone="no"?>
<!DOCTYPE svg PUBLIC "-//W3C//DTD SVG 20010904//EN"
 "http://www.w3.org/TR/2001/REC-SVG-20010904/DTD/svg10.dtd">
<svg version="1.0" xmlns="http://www.w3.org/2000/svg"
 width="194.000000pt" height="194.000000pt" viewBox="0 0 194.000000 194.000000"
 preserveAspectRatio="xMidYMid meet">
<metadata>
Created by potrace 1.10, written by Peter Selinger 2001-2011
</metadata>
<g transform="translate(0.000000,194.000000) scale(0.100000,-0.100000)"
fill="#000000" stroke="none">
<path d="M985 1815 c17 -74 23 -85 40 -83 14 2 23 17 33 61 8 31 17 57 21 57
4 0 13 -27 20 -60 10 -45 18 -60 31 -60 13 0 22 16 34 68 9 37 19 75 22 85 4
12 0 17 -14 17 -16 0 -21 -9 -27 -55 -3 -30 -10 -55 -14 -55 -4 0 -13 25 -20
55 -10 43 -17 55 -31 55 -14 0 -22 -11 -30 -42 -21 -82 -26 -88 -34 -34 -10
65 -15 76 -35 76 -15 0 -15 -7 4 -85z"/>
<path d="M1213 1784 c-42 -59 -49 -76 -37 -81 8 -3 21 2 28 12 10 14 21 16 49
11 31 -6 37 -11 37 -31 0 -18 6 -25 18 -25 18 0 18 4 5 87 -12 76 -24 104 -43
102 -3 0 -29 -34 -57 -75z m67 -4 c0 -23 -4 -30 -20 -30 -23 0 -25 12 -8 40
18 28 28 25 28 -10z"/>
<path d="M1420 1750 c-26 -26 -25 -33 10 -73 37 -43 38 -59 3 -55 -19 2 -29
10 -33 28 -3 14 -12 25 -20 25 -25 0 -23 -33 4 -60 32 -32 79 -34 100 -3 22
30 21 32 -20 78 -30 33 -33 41 -20 46 18 7 46 -12 46 -31 0 -16 27 -27 36 -14
9 15 -24 59 -52 69 -33 13 -31 13 -54 -10z"/>
<path d="M1577 1600 c-59 -47 -49 -128 19 -156 36 -15 38 -15 63 10 l26 26
-27 26 c-30 31 -60 24 -32 -7 15 -17 15 -19 1 -25 -26 -10 -57 14 -57 45 0 30
36 71 62 71 19 0 45 -28 49 -54 6 -33 29 -31 29 2 0 21 -9 38 -31 56 -37 31
-67 33 -102 6z"/>
<path d="M1697 1415 l-67 -45 37 -56 c24 -36 40 -51 46 -45 7 7 1 23 -16 49
-19 29 -23 42 -14 51 18 18 31 13 55 -25 17 -26 27 -33 34 -26 8 8 4 21 -15
45 -19 26 -23 37 -14 46 17 17 24 14 47 -24 12 -19 28 -35 36 -35 8 0 14 2 14
5 0 8 -64 105 -70 105 -3 0 -36 -20 -73 -45z"/>
<path d="M1806 1236 c-77 -29 -93 -51 -72 -100 8 -20 23 -39 32 -43 9 -3 47 4
85 16 50 16 67 26 62 36 -7 19 -8 19 -71 -5 -65 -25 -69 -25 -82 1 -15 27 -2
42 58 64 56 21 70 32 57 44 -6 6 -33 0 -69 -13z"/>
<path d="M136 1148 c-8 -33 -8 -38 8 -38 14 0 26 21 26 46 0 23 -27 16 -34 -8z"/>
<path d="M158 990 c4 -49 4 -50 -22 -50 -24 0 -26 3 -26 45 0 35 -4 45 -16 45
-14 0 -16 -7 -11 -44 5 -38 4 -45 -13 -49 -26 -7 -30 0 -30 50 0 30 -4 43 -14
43 -11 0 -13 -13 -9 -62 3 -35 6 -64 7 -65 1 -1 39 1 84 4 l83 6 -3 61 c-2 46
-7 61 -19 64 -14 2 -15 -5 -11 -48z"/>
<path d="M1808 1023 c-50 -3 -58 -7 -58 -24 0 -17 5 -18 40 -13 52 8 54 -12 4
-55 -23 -21 -34 -39 -32 -52 3 -19 6 -18 39 15 34 34 37 35 42 16 4 -15 13
-20 36 -20 39 0 50 21 44 88 -5 49 -7 52 -32 50 -14 -1 -52 -3 -83 -5z m90
-69 c-2 -21 -8 -29 -23 -29 -28 0 -35 61 -8 67 26 6 35 -5 31 -38z"/>
<path d="M149 837 c-25 -38 -34 -44 -44 -27 -10 15 -51 12 -66 -6 -10 -13 -10
-24 0 -62 7 -26 16 -51 20 -55 5 -5 43 2 85 15 59 18 76 27 76 42 0 12 -5 16
-16 12 -49 -19 -64 -18 -64 2 0 11 11 33 24 49 16 19 21 34 16 48 -6 17 -9 16
-31 -18z m-40 -73 c13 -30 7 -44 -18 -44 -17 0 -31 25 -31 58 0 22 37 12 49
-14z"/>
<path d="M1880 794 l0 -27 -62 7 c-34 4 -67 8 -72 9 -5 1 -11 -6 -14 -15 -3
-14 8 -18 68 -24 l72 -7 -4 -28 c-4 -22 -1 -29 12 -29 14 0 19 13 24 61 3 34
3 65 0 70 -11 18 -24 8 -24 -17z"/>
<path d="M148 644 c-48 -26 -62 -79 -32 -122 33 -47 88 -48 134 -2 29 29 27
84 -5 115 -27 28 -57 31 -97 9z m82 -34 c11 -11 20 -25 20 -30 0 -20 -49 -60
-73 -60 -64 0 -62 79 3 103 25 9 29 8 50 -13z"/>
<path d="M1683 628 c-16 -21 -23 -47 -16 -64 9 -23 133 -78 147 -64 13 13 2
23 -54 44 -25 10 -50 22 -57 28 -16 13 -5 38 18 38 10 0 19 7 19 15 0 18 -43
20 -57 3z"/>
<path d="M1551 425 c-28 -37 -37 -56 -29 -61 10 -7 58 41 58 59 0 13 27 8 40
-8 10 -12 7 -20 -14 -46 -23 -27 -27 -49 -8 -49 4 0 18 16 31 35 20 29 26 33
43 24 18 -10 17 -12 -11 -48 -28 -35 -31 -51 -10 -51 4 0 23 22 42 48 l34 48
-68 51 -68 51 -40 -53z"/>
<path d="M315 400 c-46 -47 -50 -49 -67 -33 -12 11 -22 13 -28 7 -6 -6 7 -27
39 -58 32 -31 51 -44 56 -36 4 6 0 19 -9 29 -16 17 -14 22 32 69 37 38 47 54
38 61 -9 8 -26 -4 -61 -39z"/>
<path d="M437 312 c-24 -27 -21 -47 13 -85 36 -41 37 -49 8 -45 -13 2 -27 13
-33 25 -14 33 -35 37 -35 8 0 -45 78 -83 108 -53 20 20 14 45 -19 83 -24 27
-29 39 -21 47 17 17 60 -6 64 -33 5 -36 28 -36 28 0 0 25 -7 36 -32 51 -41 25
-60 25 -81 2z"/>
<path d="M1467 286 c-23 -19 -26 -25 -14 -34 11 -9 18 -7 35 11 31 33 14 51
-21 23z"/>
<path d="M1235 210 c-3 -5 -3 -48 1 -95 6 -72 10 -85 23 -83 17 4 18 7 7 88
l-7 55 49 -48 c35 -34 53 -46 66 -41 15 6 7 17 -45 70 -62 63 -82 74 -94 54z"/>
<path d="M663 164 c-7 -19 -4 -22 31 -26 40 -4 44 17 6 31 -25 8 -32 8 -37 -5z"/>
<path d="M1097 118 c7 -35 16 -73 18 -85 3 -13 12 -23 20 -23 19 0 19 3 -2 95
-12 58 -20 75 -33 75 -16 0 -16 -5 -3 -62z"/>
<path d="M890 140 c0 -26 -4 -30 -28 -30 -37 0 -72 -26 -72 -54 0 -32 17 -44
78 -52 l52 -7 0 71 c0 39 3 77 6 86 4 12 0 16 -15 16 -17 0 -21 -6 -21 -30z
m0 -85 c0 -21 -5 -25 -29 -25 -16 0 -31 6 -34 13 -8 23 5 37 34 37 24 0 29 -4
29 -25z"/>
</g>
</svg>
