<?xml version="1.0" standalone="no"?>
<!DOCTYPE svg PUBLIC "-//W3C//DTD SVG 20010904//EN"
 "http://www.w3.org/TR/2001/REC-SVG-20010904/DTD/svg10.dtd">
<svg version="1.0" xmlns="http://www.w3.org/2000/svg"
 width="193.000000pt" height="192.000000pt" viewBox="0 0 193.000000 192.000000"
 preserveAspectRatio="xMidYMid meet">
<metadata>
Created by potrace 1.10, written by Peter Selinger 2001-2011
</metadata>
<g transform="translate(0.000000,192.000000) scale(0.100000,-0.100000)"
fill="#000000" stroke="none">
<path d="M960 1913 c0 -5 8 -43 17 -86 16 -67 21 -77 38 -75 15 2 23 18 35 68
18 72 21 71 40 -12 10 -43 18 -58 30 -58 14 0 22 19 38 82 12 45 19 84 17 86
-2 3 -11 2 -19 -1 -9 -4 -17 -27 -21 -61 -4 -31 -10 -56 -14 -56 -4 0 -13 27
-19 60 -10 48 -17 60 -32 60 -14 0 -22 -11 -30 -42 -21 -82 -26 -88 -34 -34
-4 27 -10 55 -13 62 -5 15 -33 20 -33 7z"/>
<path d="M595 1853 c-27 -14 -52 -27 -53 -28 -3 -3 50 -113 73 -152 1 -2 27
11 59 28 37 20 54 35 48 41 -6 6 -24 2 -50 -11 -41 -21 -41 -21 -52 -2 -14 27
-15 26 29 46 25 11 38 22 34 31 -4 11 -13 9 -45 -7 -33 -17 -42 -18 -49 -7
-14 21 -11 24 31 43 22 10 40 22 40 26 0 18 -18 16 -65 -8z"/>
<path d="M1255 1788 c-44 -54 -54 -72 -44 -79 9 -6 19 -2 29 12 14 17 20 18
48 8 23 -8 32 -17 32 -34 0 -15 7 -25 21 -28 20 -5 21 -3 15 31 -3 20 -6 62
-6 93 0 47 -3 58 -19 62 -14 3 -33 -13 -76 -65z m63 -27 c-2 -15 -7 -17 -27
-10 l-24 9 24 26 c19 21 25 23 27 10 2 -9 2 -24 0 -35z"/>
<path d="M848 1821 c-20 -4 -25 -10 -19 -19 11 -19 55 -11 59 11 4 18 3 18
-40 8z"/>
<path d="M344 1698 l-45 -43 60 -60 c47 -46 63 -57 73 -47 9 9 7 17 -11 36
-33 35 -19 49 38 41 37 -5 50 -3 60 9 12 14 9 16 -20 18 -19 0 -42 0 -52 0
-14 -2 -16 2 -7 17 12 24 4 48 -21 61 -26 14 -26 14 -75 -32z m71 -9 c4 -6 -3
-21 -16 -35 -20 -22 -25 -23 -38 -10 -13 14 -13 18 4 36 20 22 40 26 50 9z"/>
<path d="M1496 1704 c-11 -28 -6 -46 19 -76 27 -32 25 -48 -4 -48 -21 0 -37
17 -42 44 -2 11 -10 21 -17 24 -10 3 -13 -5 -10 -29 2 -25 12 -39 36 -56 35
-23 58 -21 80 5 18 23 15 37 -14 71 -30 37 -27 69 6 51 11 -6 20 -19 20 -29 0
-11 7 -21 15 -25 25 -9 19 50 -7 68 -29 21 -74 21 -82 0z"/>
<path d="M175 1514 c-36 -39 -34 -85 6 -118 64 -54 144 -17 137 63 -2 27 -11
41 -37 58 -45 30 -76 29 -106 -3z m84 -19 c37 -19 45 -42 26 -71 -18 -28 -51
-31 -83 -8 -27 19 -30 68 -4 83 23 14 28 13 61 -4z"/>
<path d="M1675 1498 c-63 -34 -72 -93 -21 -144 19 -19 38 -34 43 -34 4 1 20
11 35 23 l27 22 -25 28 c-13 16 -29 25 -35 22 -7 -5 -4 -13 7 -26 16 -17 16
-19 0 -25 -22 -9 -56 23 -56 52 0 22 42 64 64 64 24 0 50 -29 51 -56 0 -33 21
-43 30 -15 8 27 -18 75 -50 89 -32 15 -44 15 -70 0z"/>
<path d="M1790 1254 c-36 -14 -71 -27 -77 -29 -9 -3 -7 -19 9 -62 26 -69 24
-67 37 -59 6 4 5 21 -4 47 -16 45 -14 54 14 62 15 4 21 -3 31 -38 8 -29 17
-42 25 -38 11 4 11 12 -1 46 -12 32 -12 42 -2 49 21 13 26 10 38 -29 14 -44
25 -59 34 -45 6 9 -21 101 -33 113 -3 4 -35 -4 -71 -17z"/>
<path d="M46 1243 c-18 -93 -19 -103 -2 -103 10 0 16 9 16 23 l0 24 72 -14
c75 -14 84 -13 75 11 -4 9 -28 17 -72 21 -67 8 -67 8 -63 36 6 38 -18 39 -26
2z"/>
<path d="M96 997 c-9 -7 -20 -32 -23 -55 -4 -27 -11 -42 -20 -42 -21 0 -27 28
-13 56 16 28 7 42 -15 24 -18 -15 -20 -81 -3 -98 27 -27 78 -7 78 29 0 35 19
69 35 63 17 -7 21 -64 5 -64 -5 0 -10 -9 -10 -20 0 -25 12 -26 33 -2 23 25 21
78 -3 102 -23 23 -39 25 -64 7z"/>
<path d="M1760 970 c-22 -22 -25 -46 -10 -84 9 -25 13 -26 90 -26 64 0 80 3
80 15 0 12 -14 15 -70 15 -56 0 -72 3 -77 16 -12 33 11 49 76 52 45 2 61 7 61
17 0 12 -15 15 -65 15 -52 0 -69 -4 -85 -20z"/>
<path d="M1707 737 c-7 -18 1 -27 22 -27 9 0 22 -4 30 -9 20 -13 -1 -38 -40
-46 -25 -6 -57 -40 -47 -50 2 -2 22 5 46 15 41 19 42 19 42 0 0 -11 9 -24 20
-30 36 -19 58 -3 75 52 8 29 15 55 15 59 0 3 -29 14 -63 23 -35 8 -71 18 -79
21 -9 4 -18 0 -21 -8z m127 -56 c10 -15 -12 -61 -28 -61 -21 0 -28 15 -20 45
6 25 37 35 48 16z"/>
<path d="M163 684 c-10 -5 -5 -30 13 -62 0 -1 8 0 16 3 14 6 14 10 1 36 -8 16
-15 29 -16 28 -1 0 -7 -3 -14 -5z"/>
<path d="M1577 486 c-4 -9 15 -27 54 -51 32 -20 59 -39 59 -42 0 -4 -7 -14
-15 -23 -14 -15 -14 -18 -1 -23 20 -8 92 103 74 114 -8 6 -16 2 -22 -11 -12
-27 -17 -26 -80 15 -63 40 -62 40 -69 21z"/>
<path d="M200 470 c-28 -28 -25 -49 14 -92 l32 -37 62 57 c48 44 60 60 53 72
-8 12 -14 11 -35 -9 l-25 -24 -31 27 c-38 31 -44 32 -70 6z m70 -36 c11 -13
10 -19 -7 -36 l-21 -20 -17 25 c-9 15 -14 31 -10 37 9 15 41 12 55 -6z"/>
<path d="M1417 332 c-26 -29 -21 -53 24 -107 45 -55 54 -61 64 -45 3 6 -12 32
-34 59 -49 58 -53 83 -13 79 19 -2 27 2 27 12 0 23 -48 24 -68 2z"/>
<path d="M483 243 c-34 -60 -39 -75 -27 -80 18 -7 13 -12 58 68 41 74 41 75
23 82 -7 3 -29 -25 -54 -70z"/>
<path d="M1175 217 c-62 -26 -61 -25 -49 -37 7 -7 25 -4 53 7 37 14 44 15 52
2 15 -24 11 -30 -30 -46 -24 -9 -38 -20 -35 -28 4 -10 14 -10 45 3 34 13 42
13 49 2 12 -20 5 -28 -40 -41 -22 -7 -40 -16 -40 -20 0 -18 20 -17 72 3 l55
22 -31 78 c-17 42 -35 77 -41 77 -5 -1 -32 -11 -60 -22z"/>
<path d="M650 158 c-56 -91 -55 -88 -33 -88 12 0 29 19 48 55 17 30 33 55 38
55 4 0 7 -24 7 -54 0 -37 5 -60 16 -71 9 -9 18 -14 21 -12 9 9 -19 172 -30
179 -19 12 -20 11 -67 -64z"/>
<path d="M956 125 c4 -9 19 -15 35 -15 19 0 29 5 29 15 0 10 -11 15 -35 15
-26 0 -33 -3 -29 -15z"/>
</g>
</svg>
